<?xml version="1.0" encoding="UTF-8"?><svg id="Layer_1" xmlns="http://www.w3.org/2000/svg" viewBox="0 0 457.56 441.88"><defs><style>.cls-1{fill:#fff;}.cls-2{fill:#00a0df;}.cls-3{fill:#e1251b;}</style></defs><g><path class="cls-1" d="M331.62,158.46V35.37c0-9.62-7.8-17.41-17.41-17.41H143.34c-9.62,0-17.4,7.8-17.4,17.41V165.62h0v50.35c0,9.62,7.78,17.4,17.4,17.4h170.86c9.61,0,17.41-7.79,17.41-17.4v-57.51h0Z"/><g><g><path class="cls-3" d="M132.55,171.12v39.06c0,8.99,7.28,16.28,16.28,16.28h159.9c8.99,0,16.28-7.29,16.28-16.28v-39.06H132.55Z"/><path class="cls-2" d="M325.01,163.06V41.15c0-8.99-7.29-16.28-16.28-16.28H148.83c-8.99,0-16.28,7.29-16.28,16.28v121.92"/></g><path class="cls-1" d="M281.26,203.82h-6.77c-2.34,0-4.25-1.91-4.25-4.25v-1.56c0-2.34,1.91-4.25,4.25-4.25h6.77c.43,0,.83-.24,1.04-.62,.2-.38,.19-.82-.05-1.18-2.3-3.48-6.16-5.56-10.32-5.56-3.91,0-7.62,1.88-9.95,5.03h-66.38c-2.33-3.15-6.04-5.03-9.95-5.03-4.16,0-8.02,2.08-10.32,5.56-.24,.36-.25,.8-.05,1.18,.21,.38,.6,.62,1.04,.62h6.77c2.34,0,4.25,1.91,4.25,4.25v1.56c0,2.34-1.91,4.25-4.25,4.25h-6.77c-.43,0-.83,.24-1.04,.62-.2,.38-.19,.82,.05,1.18,2.3,3.48,6.16,5.56,10.32,5.56,3.91,0,7.62-1.88,9.95-5.03h66.38c2.34,3.15,6.04,5.03,9.95,5.03,4.16,0,8.02-2.08,10.32-5.56,.24-.36,.25-.8,.05-1.18-.21-.38-.6-.62-1.04-.62Z"/><g><path class="cls-1" d="M261.77,84.51h-13.34c-1.24,0-2.25-1.01-2.25-2.25s1.01-2.25,2.25-2.25h13.34c1.24,0,2.25,1.01,2.25,2.25s-1.01,2.25-2.25,2.25Z"/><path class="cls-1" d="M208.87,82.58h-12.69c-1.24,0-2.25-1.01-2.25-2.25s1.01-2.25,2.25-2.25h12.69c1.24,0,2.25,1.01,2.25,2.25s-1.01,2.25-2.25,2.25Z"/><path class="cls-1" d="M228.74,132.77h-46.46c-.8,0-1.55-.43-1.95-1.12s-.4-1.55,0-2.25l22.58-39.11-5.1-8.83c-.62-1.08-.25-2.45,.82-3.07,1.08-.62,2.45-.25,3.07,.82l5.1,8.83h45.12c.21,0,.42,.02,.62,.08,.27,.07,.51,.19,.73,.35,.27,.19,.48,.43,.63,.7,.16,.27,.26,.57,.29,.9,.03,.27,0,.54-.07,.81-.05,.2-.14,.4-.24,.57l-23.21,40.2c-.4,.7-1.15,1.12-1.95,1.12Zm-42.56-4.5h38.67l-19.33-33.49-19.33,33.49Zm23.23-35.74l19.33,33.49,19.33-33.49h-38.67Z"/><path class="cls-1" d="M275.29,132.77c-.78,0-1.53-.4-1.95-1.12l-27.86-48.26c-.62-1.08-.25-2.45,.82-3.07,1.08-.62,2.45-.25,3.07,.82l27.86,48.26c.62,1.08,.25,2.45-.82,3.07-.35,.21-.74,.3-1.12,.3Z"/><path class="cls-1" d="M265.39,92.73c-.58,0-1.15-.22-1.59-.66-.88-.88-.88-2.3,0-3.18,.48-.48,.75-1.13,.75-1.81,0-1.42-1.15-2.57-2.57-2.57-1.24,0-2.25-1.01-2.25-2.25s1.01-2.25,2.25-2.25c3.9,0,7.07,3.17,7.07,7.07,0,1.89-.73,3.66-2.07,5-.44,.44-1.02,.66-1.59,.66Z"/></g><g><g><path class="cls-1" d="M296.67,132.28l-3.87-2.56c0-1.25-.13-2.48-.36-3.68l3.28-3.28c.25-.25,.31-.63,.14-.95l-3.27-6.08c-.17-.31-.52-.48-.87-.41l-4.54,.92c-.87-.86-1.83-1.65-2.87-2.34v-4.64c0-.35-.23-.67-.57-.77l-6.61-1.99c-.34-.1-.7,.03-.9,.33l-2.56,3.87c-1.25,0-2.48,.13-3.68,.36l-3.28-3.27c-.25-.25-.63-.31-.95-.14l-6.08,3.27c-.31,.17-.48,.52-.41,.87l.92,4.54c-.86,.87-1.65,1.83-2.34,2.87h-4.64c-.35,0-.67,.23-.77,.57l-1.99,6.61c-.1,.34,.03,.7,.33,.9l3.87,2.56c0,1.25,.12,2.48,.36,3.68l-3.28,3.28c-.25,.25-.31,.63-.14,.95l3.27,6.08c.17,.31,.52,.48,.87,.41l4.54-.92c.87,.86,1.83,1.65,2.87,2.34v4.64c0,.35,.23,.67,.57,.77l6.61,1.99c.34,.1,.7-.03,.9-.33l2.56-3.87c1.25,0,2.48-.13,3.68-.36l3.28,3.28c.25,.25,.63,.31,.95,.14l6.08-3.27c.31-.17,.48-.52,.41-.87l-.92-4.54c.86-.87,1.65-1.83,2.34-2.87h4.64c.35,0,.67-.23,.77-.57l1.99-6.61c.1-.34-.03-.7-.33-.9h0Zm-12.36,.68c-1.76,5.84-7.94,9.16-13.78,7.4s-9.16-7.94-7.4-13.78c1.76-5.84,7.94-9.16,13.78-7.4,5.84,1.76,9.16,7.94,7.4,13.78Z"/><path class="cls-2" d="M276.89,106.47c.08,0,.15,.01,.23,.03l6.61,1.99c.34,.1,.57,.41,.57,.77v4.64c1.04,.69,2,1.48,2.87,2.34l4.54-.92c.05-.01,.11-.02,.16-.02,.29,0,.57,.16,.71,.42l3.27,6.08c.17,.31,.11,.7-.14,.95l-3.28,3.28c.24,1.2,.36,2.44,.36,3.68l3.87,2.56h0c.29,.19,.43,.56,.33,.9l-1.99,6.61c-.1,.34-.41,.57-.77,.57h-4.64c-.69,1.04-1.48,2-2.34,2.87l.92,4.54c.07,.35-.09,.7-.41,.87l-6.08,3.27c-.12,.06-.25,.1-.38,.1-.21,0-.41-.08-.57-.24l-3.28-3.28c-1.2,.24-2.44,.36-3.68,.36l-2.56,3.87c-.15,.23-.41,.36-.67,.36-.08,0-.15-.01-.23-.03l-6.61-1.99c-.34-.1-.57-.42-.57-.77v-4.64c-1.04-.69-2-1.48-2.87-2.34l-4.54,.92c-.05,.01-.11,.02-.16,.02-.29,0-.56-.16-.71-.42l-3.27-6.08c-.17-.31-.11-.7,.14-.95l3.28-3.28c-.24-1.2-.36-2.43-.36-3.68l-3.87-2.56c-.29-.2-.43-.56-.33-.9l1.99-6.61c.1-.34,.41-.57,.77-.57h4.64c.69-1.04,1.48-2,2.34-2.87l-.92-4.54c-.07-.35,.09-.7,.41-.87l6.08-3.27c.12-.06,.25-.1,.38-.1,.21,0,.41,.08,.56,.23l3.28,3.27c1.2-.24,2.44-.36,3.68-.36l2.56-3.87c.15-.23,.41-.36,.67-.36m-3.18,34.36c4.75,0,9.15-3.09,10.59-7.87,1.76-5.84-1.56-12.02-7.4-13.78-1.06-.32-2.13-.47-3.18-.47-4.75,0-9.15,3.09-10.59,7.87-1.76,5.84,1.56,12.02,7.4,13.78,1.06,.32,2.13,.47,3.18,.47m3.18-38.36h0c-1.61,0-3.11,.8-4,2.14l-1.45,2.19s-.04,0-.06,0l-1.86-1.85c-.87-.88-2.11-1.41-3.39-1.41-.79,0-1.57,.2-2.27,.57l-6.09,3.27c-1.88,1.01-2.86,3.09-2.43,5.18l.52,2.57s-.02,.03-.04,.04h-2.62c-2.14,0-3.98,1.37-4.6,3.42l-1.99,6.61c-.61,2.04,.16,4.2,1.94,5.38l2.19,1.45s0,.04,0,.06l-1.86,1.86c-1.51,1.51-1.84,3.79-.83,5.67l3.27,6.08c.83,1.56,2.45,2.53,4.23,2.53,.32,0,.65-.03,.96-.1l2.56-.52s.03,.02,.04,.04v2.62c0,2.1,1.4,3.99,3.42,4.6l6.61,1.99c.45,.14,.92,.2,1.38,.2,1.61,0,3.11-.8,4-2.14l1.45-2.19s.04,0,.06,0l1.86,1.86c.89,.89,2.13,1.41,3.4,1.41,.8,0,1.59-.2,2.28-.58l6.07-3.26c1.88-1.01,2.86-3.09,2.43-5.18l-.52-2.57s.02-.03,.04-.04h2.62c2.14,0,3.98-1.37,4.6-3.42l1.99-6.61c.61-2.02-.2-4.23-1.96-5.39l-2.18-1.44s0-.04,0-.06l1.86-1.86c1.51-1.51,1.84-3.79,.83-5.67l-3.27-6.08c-.84-1.56-2.46-2.53-4.23-2.53h0c-.32,0-.64,.03-.95,.1l-2.57,.52s-.03-.02-.04-.04v-2.62c0-2.09-1.4-3.99-3.42-4.6l-6.61-1.99c-.45-.14-.92-.2-1.38-.2h0Zm-3.18,34.36c-.68,0-1.37-.1-2.03-.3-3.73-1.12-5.84-5.07-4.72-8.79,.89-2.96,3.67-5.02,6.76-5.02,.68,0,1.37,.1,2.03,.3,1.8,.54,3.28,1.76,4.18,3.42,.89,1.66,1.09,3.57,.55,5.37-.89,2.96-3.67,5.02-6.76,5.02h0Z"/></g><g><path class="cls-1" d="M205.94,136.07l-3.39-3.17c.21-1.23,.29-2.47,.25-3.69l3.78-2.68c.29-.2,.41-.57,.3-.91l-2.21-6.54c-.11-.34-.43-.56-.79-.55l-4.63,.15c-.71-1-1.53-1.93-2.44-2.78l.77-4.58c.06-.35-.12-.69-.43-.85l-6.19-3.07c-.32-.16-.7-.09-.94,.17l-3.17,3.39c-1.23-.21-2.47-.29-3.69-.25l-2.69-3.77c-.2-.29-.57-.41-.91-.29l-6.54,2.21c-.34,.11-.56,.43-.55,.79l.15,4.63c-1,.71-1.93,1.53-2.78,2.44l-4.58-.77c-.35-.06-.69,.12-.85,.43l-3.07,6.19c-.16,.32-.09,.7,.17,.94l3.39,3.17c-.2,1.23-.29,2.47-.25,3.69l-3.78,2.68c-.29,.2-.41,.57-.3,.91l2.21,6.54c.11,.34,.43,.56,.79,.55l4.63-.15c.71,1,1.53,1.93,2.44,2.78l-.77,4.57c-.06,.35,.12,.7,.44,.85l6.19,3.07c.32,.16,.7,.09,.94-.17l3.17-3.39c1.23,.21,2.47,.29,3.69,.25l2.68,3.78c.2,.29,.57,.41,.91,.3l6.54-2.21c.34-.11,.56-.43,.55-.79l-.15-4.63c1-.71,1.93-1.53,2.78-2.44l4.57,.77c.35,.06,.7-.12,.85-.44l3.07-6.19c.16-.32,.09-.7-.17-.94h0Zm-12.3-1.39c-2.71,5.46-9.35,7.7-14.82,5s-7.7-9.35-5-14.82,9.35-7.7,14.82-5c5.46,2.71,7.7,9.35,5,14.82Z"/><path class="cls-2" d="M179.82,106.59c.26,0,.5,.12,.65,.34l2.69,3.77c.18,0,.36,0,.55,0,1.05,0,2.1,.09,3.15,.26l3.17-3.39c.16-.17,.37-.25,.59-.25,.12,0,.24,.03,.36,.08l6.19,3.07c.32,.16,.49,.5,.43,.85l-.77,4.58c.91,.85,1.73,1.79,2.44,2.78l4.63-.15s.02,0,.03,0c.34,0,.65,.22,.76,.55l2.21,6.54c.11,.34,0,.71-.3,.91l-3.78,2.68c.04,1.22-.05,2.46-.25,3.69l3.39,3.17h0c.26,.24,.33,.62,.17,.94l-3.07,6.19c-.14,.28-.42,.45-.72,.45-.04,0-.09,0-.13-.01l-4.57-.77c-.86,.91-1.79,1.73-2.78,2.44l.15,4.63c.01,.35-.21,.67-.55,.79l-6.54,2.21c-.08,.03-.17,.04-.26,.04-.26,0-.5-.12-.65-.34l-2.68-3.78c-.18,0-.36,0-.55,0-1.05,0-2.1-.09-3.15-.26l-3.17,3.39c-.16,.17-.37,.25-.59,.25-.12,0-.24-.03-.36-.08l-6.19-3.07c-.32-.16-.49-.51-.44-.85l.77-4.57c-.91-.85-1.73-1.79-2.44-2.78l-4.63,.15s-.02,0-.03,0c-.34,0-.65-.22-.76-.55l-2.21-6.54c-.11-.34,0-.71,.3-.91l3.78-2.68c-.04-1.22,.05-2.46,.25-3.69l-3.39-3.17c-.26-.24-.33-.62-.17-.94l3.07-6.19c.14-.28,.42-.45,.72-.45,.04,0,.09,0,.14,.01l4.58,.77c.85-.91,1.79-1.73,2.78-2.44l-.15-4.63c-.01-.35,.21-.67,.55-.79l6.54-2.21c.08-.03,.17-.04,.26-.04m3.89,34.24c4.07,0,8-2.26,9.93-6.15,2.71-5.46,.46-12.11-5-14.82-1.57-.78-3.24-1.15-4.89-1.15-4.07,0-8,2.26-9.93,6.15-2.71,5.46-.46,12.11,5,14.82,1.57,.78,3.24,1.15,4.89,1.15m-3.89-38.24h0c-.52,0-1.04,.08-1.53,.25l-6.55,2.21c-2.02,.68-3.33,2.57-3.26,4.71l.09,2.62s-.03,.02-.04,.04l-2.59-.44c-.26-.04-.53-.07-.8-.07-1.84,0-3.49,1.02-4.3,2.67l-3.07,6.19c-.95,1.91-.54,4.17,1.01,5.63l1.92,1.8s0,.04,0,.06l-2.14,1.52c-1.74,1.24-2.45,3.43-1.77,5.45l2.21,6.54c.65,1.95,2.48,3.27,4.55,3.27h.17s2.61-.09,2.61-.09c.01,.01,.02,.03,.04,.04l-.44,2.59c-.35,2.07,.72,4.17,2.6,5.1l6.19,3.07c.66,.33,1.4,.5,2.13,.5,1.32,0,2.6-.55,3.5-1.51l1.8-1.92s.04,0,.06,0l1.52,2.14c.9,1.26,2.36,2.02,3.91,2.02,.53,0,1.05-.09,1.55-.26l6.53-2.2c2.02-.68,3.33-2.57,3.26-4.71l-.09-2.62s.03-.02,.04-.04l2.59,.44c.26,.04,.53,.07,.8,.07,1.84,0,3.49-1.02,4.3-2.67l3.07-6.19c.94-1.89,.51-4.21-1.03-5.64l-1.91-1.79s0-.04,0-.06l2.14-1.52c1.74-1.24,2.45-3.43,1.77-5.45l-2.21-6.54c-.66-1.95-2.49-3.27-4.55-3.27h-.15s-2.63,.09-2.63,.09c-.01-.01-.03-.03-.04-.04l.44-2.59c.35-2.06-.71-4.17-2.6-5.1l-6.19-3.07c-.66-.33-1.4-.5-2.13-.5-1.32,0-2.6,.55-3.5,1.51l-1.8,1.92s-.04,0-.06,0l-1.52-2.14c-.88-1.25-2.34-2.02-3.91-2.02h0Zm3.89,34.24c-1.09,0-2.13-.25-3.11-.73-3.49-1.73-4.92-5.97-3.19-9.46,1.2-2.42,3.63-3.92,6.34-3.92,1.09,0,2.13,.25,3.11,.73,3.49,1.73,4.92,5.97,3.19,9.46-1.2,2.42-3.63,3.92-6.34,3.92h0Z"/></g><circle class="cls-2" cx="183.73" cy="129.78" r="8.08"/><circle class="cls-2" cx="273.72" cy="129.78" r="8.08"/></g></g></g><g><path class="cls-1" d="M56.17,415.95l-.05-27.74-13.76,23.11h-2.5l-13.76-22.95v27.57h-5.22v-38.07h4.46l15.88,26.76,15.66-26.76h4.46l.05,38.07h-5.22Z"/><path class="cls-1" d="M110.23,411.21v4.73h-27.63v-38.07h26.87v4.73h-21.43v11.69h19.09v4.62h-19.09v12.29h22.19Z"/><path class="cls-1" d="M125.56,396.91c0-11.26,8.59-19.47,20.18-19.47,5.87,0,10.99,2.01,14.47,5.93l-3.53,3.43c-2.94-3.1-6.53-4.51-10.71-4.51-8.59,0-14.96,6.2-14.96,14.63s6.36,14.63,14.96,14.63c4.19,0,7.78-1.47,10.71-4.57l3.53,3.43c-3.48,3.92-8.59,5.98-14.52,5.98-11.53,0-20.12-8.21-20.12-19.47Z"/><path class="cls-1" d="M210.51,377.88v38.07h-5.44v-16.97h-21.86v16.97h-5.44v-38.07h5.44v16.37h21.86v-16.37h5.44Z"/><path class="cls-1" d="M255.97,406.43h-20.23l-4.19,9.52h-5.6l17.24-38.07h5.38l17.29,38.07h-5.71l-4.19-9.52Zm-1.9-4.35l-8.21-18.65-8.21,18.65h16.42Z"/><path class="cls-1" d="M314.05,377.88v38.07h-4.46l-22.84-28.39v28.39h-5.44v-38.07h4.46l22.84,28.39v-28.39h5.44Z"/><path class="cls-1" d="M335.26,377.88h5.44v38.07h-5.44v-38.07Z"/><path class="cls-1" d="M358.81,396.91c0-11.26,8.59-19.47,20.18-19.47,5.87,0,10.99,2.01,14.47,5.93l-3.54,3.43c-2.94-3.1-6.53-4.51-10.71-4.51-8.59,0-14.96,6.2-14.96,14.63s6.36,14.63,14.96,14.63c4.19,0,7.78-1.47,10.71-4.57l3.54,3.43c-3.48,3.92-8.59,5.98-14.52,5.98-11.53,0-20.12-8.21-20.12-19.47Z"/><path class="cls-1" d="M407.37,411.59l2.01-4.24c2.83,2.56,7.67,4.41,12.56,4.41,6.58,0,9.41-2.56,9.41-5.87,0-9.3-23.06-3.43-23.06-17.57,0-5.87,4.57-10.88,14.57-10.88,4.46,0,9.08,1.2,12.24,3.37l-1.79,4.35c-3.32-2.12-7.07-3.1-10.44-3.1-6.47,0-9.25,2.72-9.25,6.04,0,9.3,23.06,3.48,23.06,17.46,0,5.82-4.68,10.82-14.74,10.82-5.82,0-11.53-1.96-14.57-4.79Z"/></g><rect class="cls-1" x="20.88" y="348.65" width="414.76" height="2"/><g><path class="cls-1" d="M20.88,267.6h10.89c5.96,0,7.5,1.86,7.5,8.33v5.13c0,4.74-.83,6.98-3.59,7.82,2.76,.9,3.59,3.08,3.59,7.75v7.5c0,6.47-1.54,8.33-7.5,8.33h-10.89v-44.85Zm12.75,9.23c0-3.01-.19-3.97-2.88-3.97h-4.23v13.39h4.23c2.63,0,2.88-.96,2.88-3.97v-5.45Zm-7.11,14.67v15.7h4.23c2.69,0,2.88-.96,2.88-3.97v-7.75c0-3.01-.26-3.97-2.88-3.97h-4.23Z"/><path class="cls-1" d="M43.56,267.6h5.13v5.19h-5.13v-5.19Zm5.13,44.85h-5.13v-35.37h5.13v35.37Z"/><path class="cls-1" d="M64.39,298.1h4.8v7.24c0,5.77-1.41,7.43-6.66,7.43h-2.82c-5.32,0-6.73-1.67-6.73-7.43v-21.14c0-5.77,1.41-7.43,6.73-7.43h2.82c5.25,0,6.66,1.67,6.66,7.43v6.6h-4.8v-5.83c0-2.63-.26-3.52-2.56-3.52h-1.15c-2.31,0-2.56,.9-2.56,3.52v19.61c0,2.63,.26,3.52,2.56,3.52h1.15c2.31,0,2.56-.9,2.56-3.52v-6.47Z"/><path class="cls-1" d="M77.27,320.59h-4.68v-3.91h2.63c1.47,0,2.05-.64,2.11-1.86l.13-1.99-5.96-35.75h5.25l2.18,13.39c.9,5.51,1.67,12.05,1.92,16.47,.32-4.42,1.09-11.02,1.99-16.47l2.24-13.39h4.61l-6.47,38.51c-.51,3.2-2.24,5-5.96,5Z"/><path class="cls-1" d="M103.47,298.1h4.8v7.24c0,5.77-1.41,7.43-6.66,7.43h-2.82c-5.32,0-6.73-1.67-6.73-7.43v-21.14c0-5.77,1.41-7.43,6.73-7.43h2.82c5.25,0,6.66,1.67,6.66,7.43v6.6h-4.8v-5.83c0-2.63-.26-3.52-2.56-3.52h-1.15c-2.31,0-2.56,.9-2.56,3.52v19.61c0,2.63,.26,3.52,2.56,3.52h1.15c2.31,0,2.56-.9,2.56-3.52v-6.47Z"/><path class="cls-1" d="M112.51,312.45v-44.85h5.13v44.85h-5.13Z"/><path class="cls-1" d="M133.33,300.4h4.8v4.93c0,5.77-1.41,7.43-6.66,7.43h-2.82c-5.32,0-6.73-1.67-6.73-7.43v-21.14c0-5.77,1.41-7.43,6.73-7.43h2.82c5.25,0,6.66,1.67,6.66,7.43v12.11h-11.08v8.27c0,2.63,.26,3.52,2.56,3.52h1.15c2.31,0,2.56-.9,2.56-3.52v-4.16Zm0-15.44c0-2.63-.26-3.52-2.56-3.52h-1.15c-2.31,0-2.56,.9-2.56,3.52v6.86h6.28v-6.86Z"/><path class="cls-1" d="M157.62,286.5c-.64-2.82-1.02-5.45-1.41-8.07,.06,2.63,.13,5.25,.13,8.2v25.82h-4.87v-44.85h7.11l5.32,23.96c.64,2.82,1.09,5.45,1.47,8.07-.06-2.63-.26-5.25-.26-8.14v-23.9h4.93v44.85h-6.41l-6.02-25.95Z"/><path class="cls-1" d="M185.87,300.4h4.8v4.93c0,5.77-1.41,7.43-6.66,7.43h-2.82c-5.32,0-6.73-1.67-6.73-7.43v-21.14c0-5.77,1.41-7.43,6.73-7.43h2.82c5.25,0,6.66,1.67,6.66,7.43v12.11h-11.08v8.27c0,2.63,.26,3.52,2.56,3.52h1.15c2.31,0,2.56-.9,2.56-3.52v-4.16Zm0-15.44c0-2.63-.26-3.52-2.56-3.52h-1.15c-2.31,0-2.56,.9-2.56,3.52v6.86h6.28v-6.86Z"/><path class="cls-1" d="M193.05,277.08h2.5v-7.69h5.13v7.69h3.4v4.29h-3.4v23c0,3.01,.19,5.7,1.09,8.07h-5.45c-.64-1.47-.77-4.23-.77-7.18v-23.9h-2.5v-4.29Z"/><path class="cls-1" d="M216.76,312.45h-7.05l-4.87-35.37h5.25l1.73,12.69c.9,6.41,1.35,12.37,1.6,16.85,.32-4.49,.96-10.44,1.86-16.79l1.86-12.75h5.25l1.86,12.75c.9,6.34,1.47,12.3,1.73,16.79,.32-4.49,.7-10.44,1.6-16.85l1.73-12.69h4.61l-4.81,35.37h-6.86l-1.47-11.85c-.45-3.78-1.09-8.84-1.35-12.37-.19,3.52-.77,8.59-1.22,12.37l-1.47,11.85Z"/><path class="cls-1" d="M252.9,305.34c0,5.77-1.41,7.43-6.66,7.43h-3.14c-5.32,0-6.73-1.67-6.73-7.43v-21.14c0-5.77,1.41-7.43,6.73-7.43h3.14c5.25,0,6.66,1.67,6.66,7.43v21.14Zm-11.41-.77c0,2.63,.26,3.52,2.56,3.52h1.15c2.31,0,2.56-.9,2.56-3.52v-19.61c0-2.63-.26-3.52-2.56-3.52h-1.15c-2.31,0-2.56,.9-2.56,3.52v19.61Z"/><path class="cls-1" d="M257.19,312.45v-35.37h4.8v4.74c.58-3.14,1.99-5.06,4.68-5.06h.45v5.45h-.51c-3.08,0-4.29,1.92-4.29,6.66v23.58h-5.13Z"/><path class="cls-1" d="M274.94,312.45h-5.13v-44.85h5.13v25.12c.64-1.47,1.28-2.88,1.92-4.36l5.19-11.28h5l-8.01,16.72,8.39,18.65h-5.32l-5.57-12.49c-.77-1.73-1.22-2.82-1.6-4.16v16.66Z"/><path class="cls-1" d="M310.63,305.59h-7.24l-.96,6.86h-5.06l6.09-44.85h7.75l6.02,44.85h-5.64l-.96-6.86Zm-6.54-5.25h5.83l-.71-5.45c-1.15-8.97-1.79-16.59-2.24-22.62-.45,6.02-1.03,13.65-2.18,22.62l-.71,5.45Z"/><path class="cls-1" d="M331.71,312.45v-27.62c0-2.5-.26-3.4-2.44-3.4h-.96c-2.11,0-2.88,1.54-2.88,4.23v26.78h-5.13v-35.37h4.8v4.04c.58-2.69,2.05-4.36,5.38-4.36h1.28c3.91,0,5.06,1.6,5.06,6.09v29.6h-5.13Z"/><path class="cls-1" d="M346.38,292.2c5.32-2.18,5.83-2.5,5.83-6.66v-.58c0-2.63-.26-3.52-2.56-3.52h-1.09c-2.24,0-2.56,.9-2.56,3.52v4.04h-4.74v-4.81c0-5.77,1.35-7.43,6.6-7.43h2.82c5.25,0,6.66,1.67,6.66,7.43v22.3c0,2.05,0,3.84,.45,5.96h-4.81c-.32-.71-.51-1.86-.58-3.59-.64,2.44-2.18,3.91-5.25,3.91h-1.28c-3.91,0-5.06-1.6-5.06-6.09v-5.77c0-4.55,.9-6.79,5.57-8.71Zm5.83,1.86c-.77,.45-1.67,.9-2.76,1.35-3.14,1.35-3.52,2.5-3.52,5.64v3.65c0,2.5,.26,3.4,2.44,3.4h.96c2.11,0,2.88-1.54,2.88-4.23v-9.8Z"/><path class="cls-1" d="M361.83,312.45v-44.85h5.13v44.85h-5.13Z"/><path class="cls-1" d="M375.41,320.59h-4.68v-3.91h2.63c1.47,0,2.05-.64,2.11-1.86l.13-1.99-5.96-35.75h5.25l2.18,13.39c.9,5.51,1.67,12.05,1.92,16.47,.32-4.42,1.09-11.02,1.99-16.47l2.24-13.39h4.61l-6.47,38.51c-.51,3.2-2.24,5-5.96,5Z"/><path class="cls-1" d="M401.04,302.97c0-3.01-.83-3.91-5-6.79-4.93-3.4-6.02-5.38-6.02-9.93v-2.05c0-5.77,1.35-7.43,6.66-7.43h2.82c5.25,0,6.66,1.67,6.66,7.43v4.81h-4.8v-4.04c0-2.63-.26-3.52-2.56-3.52h-1.15c-2.24,0-2.5,.9-2.5,3.52v.96c0,3.01,.83,3.91,5,6.79,4.93,3.4,6.02,5.38,6.02,9.93v2.69c0,5.77-1.41,7.43-6.66,7.43h-2.82c-5.32,0-6.66-1.67-6.66-7.43v-5.45h4.81v4.68c0,2.63,.19,3.52,2.56,3.52h1.09c2.37,0,2.56-.9,2.56-3.52v-1.6Z"/><path class="cls-1" d="M410.27,267.6h5.13v5.19h-5.13v-5.19Zm5.13,44.85h-5.13v-35.37h5.13v35.37Z"/><path class="cls-1" d="M430.51,302.97c0-3.01-.83-3.91-5-6.79-4.93-3.4-6.02-5.38-6.02-9.93v-2.05c0-5.77,1.35-7.43,6.66-7.43h2.82c5.25,0,6.66,1.67,6.66,7.43v4.81h-4.8v-4.04c0-2.63-.26-3.52-2.56-3.52h-1.15c-2.24,0-2.5,.9-2.5,3.52v.96c0,3.01,.83,3.91,5,6.79,4.93,3.4,6.02,5.38,6.02,9.93v2.69c0,5.77-1.41,7.43-6.66,7.43h-2.82c-5.32,0-6.66-1.67-6.66-7.43v-5.45h4.81v4.68c0,2.63,.19,3.52,2.56,3.52h1.09c2.37,0,2.56-.9,2.56-3.52v-1.6Z"/></g></svg>