<?xml version="1.0" encoding="UTF-8" standalone="no"?>
<svg xmlns:dc="http://purl.org/dc/elements/1.1/" xmlns:cc="http://creativecommons.org/ns#" xmlns:rdf="http://www.w3.org/1999/02/22-rdf-syntax-ns#" xmlns:svg="http://www.w3.org/2000/svg" xmlns="http://www.w3.org/2000/svg" width="11mm" height="11mm" viewBox="0 0 11 11" version="1.1" id="svg344">
   <defs id="defs338" />
   <metadata id="metadata341">
      <rdf:RDF>
         <cc:Work rdf:about="">
            <dc:format>image/svg+xml</dc:format>
            <dc:type rdf:resource="http://purl.org/dc/dcmitype/StillImage" />
            <dc:title></dc:title>
         </cc:Work>
      </rdf:RDF>
   </metadata>
   <rect ry="0.55932206" y="0.60593235" x="0.76906693" height="9.7881355" width="9.4618664" id="rect35" style="fill:#ffffff;fill-opacity:1;stroke:#ffffff;stroke-width:0.79374999;stroke-linecap:square;stroke-linejoin:round;stroke-miterlimit:4;stroke-dasharray:none;stroke-opacity:1" />
   <path d="m 0.97717816,7.6362802 v 1.8355 c 0,0.4229798 0.34219414,0.7655298 0.76517504,0.7655298 h 7.5152274 c 0.42227,0 0.7658794,-0.34255 0.7658794,-0.7655298 v -1.8355 z m 6.18172534,1.0862 c -0.4339172,0.40782 -1.0174103,0.65864 -1.6591153,0.65864 -0.64135,0 -1.2248431,-0.2504702 -1.6591119,-0.65864 l -0.022939,-0.021201 0.264935,-0.2645801 0.021511,0.019399 c 0.3668871,0.3414901 0.8568949,0.5510401 1.3955871,0.5510401 0.5390463,0 1.0290541,-0.20955 1.3955901,-0.5510401 l 0.02151,-0.019399 0.2659959,0.2645801 z" style="fill:#df271c;fill-opacity:1;fill-rule:nonzero;stroke:none;stroke-width:0.35277775" id="path1320" />
   <path d="m 10.022966,1.52811 c 0,-0.42298 -0.3432598,-0.76588004 -0.7658899,-0.76588004 H 1.7422092 C 1.318876,0.76222996 0.97703407,1.10513 0.97703407,1.52811 V 7.2572201 H 2.8802703 C 2.4011962,7.04697 2.0667633,6.5686001 2.0664113,6.0115602 c 2.645e-4,-0.7514101 0.6096,-1.3610101 1.3606647,-1.3610101 0.2293041,0 0.4437941,0.0561 0.6339422,0.15592 L 4.4614204,4.1605399 4.3400631,3.79259 c -0.08925,-0.019 -0.140758,0.00101 -0.280458,-0.019799 -0.142875,-0.0215 -0.157692,-0.0575 -0.129117,-0.13652 0.02858,-0.079 0.186267,-0.0434 0.322792,-0.0286 0.1361731,0.0141 0.400404,-0.0381 0.523875,-0.043 0.171804,-0.007 0.2286,0.1576901 0.2286,0.1576901 0,0 -0.09313,0.0141 -0.186267,0.0141 -0.09207,0 -0.1075946,0 -0.200729,0.0363 -0.02363,0.009 -0.04762,0.015901 -0.07161,0.021201 l 0.09137,0.2779901 h 2.091267 L 6.533636,3.532902 h 0.7313088 c 0.1972011,0.00201 0.3559511,0.1633399 0.3559511,0.3608998 0,0.1993202 -0.161925,0.3615902 -0.3608911,0.3615902 h -0.024339 v -0.19226 h 0.02363 c 0.09349,-3.44e-4 0.1689793,-0.0762 0.1689793,-0.1693302 0,-0.0928 -0.07443,-0.1675699 -0.1654524,-0.1693399 H 6.813027 l 0.3538349,0.97508 c 0.1157132,-0.0318 0.2377731,-0.049 0.3640662,-0.049 0.7514187,0 1.3610187,0.6096 1.3610187,1.3610201 0,0.5570299 -0.3344396,1.0353998 -0.8135098,1.2456599 h 1.94451 z" style="fill:#00a0df;fill-opacity:1;fill-rule:nonzero;stroke:none;stroke-width:0.35277775" id="path1324" />
   <path d="m 6.1702802,6.01139 c 0,-0.55704 0.3333742,-1.0343499 0.8127992,-1.2456599 l -0.1375828,-0.37465 -1.5610414,1.64959 c -0.04127,0.0427 -0.09843,0.0688 -0.1605151,0.0688 L 4.7856283,6.109814 c -0.03669,0.5147 -0.3598342,0.94933 -0.8099801,1.14759 h 3.00849 C 6.5050651,7.046784 6.1702802,6.5684141 6.1702802,6.0113839" style="fill:#00a0df;fill-opacity:1;fill-rule:nonzero;stroke:none;stroke-width:0.35277775" id="path1328" />
   <path d="M 4.0793993,5.1486999 3.6052662,5.91247 c 0,0 7.937e-4,3.44e-4 7.937e-4,0.00101 h 0.898525 C 4.4816456,5.6531254 4.3666471,5.4209953 4.192728,5.2470755 c -0.03528,-0.036 -0.07267,-0.0681 -0.113242,-0.0984" style="fill:#00a0df;fill-opacity:1;fill-rule:nonzero;stroke:none;stroke-width:0.35277775" id="path1332" />
   <path d="m 4.2279893,4.9101601 c 0.315383,0.2293001 0.528108,0.5912501 0.5577422,1.0033 h 0.2550578 l -0.4988272,-1.50919 z" style="fill:#00a0df;fill-opacity:1;fill-rule:nonzero;stroke:none;stroke-width:0.35277775" id="path1336" />
   <path d="m 3.4196713,6.2217502 c -0.1164162,0 -0.2106079,-0.0938 -0.2106079,-0.2102602 0,-0.11606 0.09419,-0.2106099 0.2106079,-0.2106099 0.0071,0 0.015161,7.144e-4 0.022569,0.00101 l 0.470607,-0.75741 c -0.14605,-0.0737 -0.30974,-0.11465 -0.4854242,-0.11465 C 3.129328,4.9305445 2.860157,5.0497702 2.663307,5.2462702 2.467515,5.4427701 2.346865,5.7122903 2.346865,6.0110901 c 0,0.2991601 0.12065,0.5679702 0.316442,0.7641201 0.19685,0.1965 0.466021,0.3164401 0.7641161,0.3164401 0.2995092,0 0.569032,-0.1199401 0.7651751,-0.3164401 0.173922,-0.1739199 0.288925,-0.40605 0.3118572,-0.6664 h -0.898525 c -0.03528,0.0677 -0.1051272,0.11254 -0.1862672,0.11254" style="fill:#00a0df;fill-opacity:1;fill-rule:nonzero;stroke:none;stroke-width:0.35277775" id="path1340" />
   <path d="M 8.2952704,5.2464201 C 8.0991302,5.0513401 7.8296032,4.92998 7.5308013,4.92998 c -0.09208,0 -0.181329,0.011999 -0.2677578,0.0335 l 0.3062097,0.8403201 c 0.1008941,0.015899 0.1781527,0.1023001 0.1781527,0.2074299 0,0.1167701 -0.09454,0.2106101 -0.2109605,0.2106101 -0.1157103,0 -0.2113151,-0.0938 -0.2113151,-0.2106101 0,-0.055 0.02223,-0.1051298 0.05751,-0.1439299 l -0.3048,-0.83785 C 6.9621273,5.08345 6.8566485,5.1568002 6.7666904,5.24641 6.5705442,5.44326 6.4495423,5.7124302 6.4495423,6.01123 c 0,0.2991601 0.1210019,0.5679702 0.3171481,0.7648202 0.1957909,0.1961499 0.4653119,0.31609 0.7641159,0.31609 0.2988019,0 0.5683242,-0.1199401 0.7644643,-0.31609 0.1961396,-0.19685 0.3167896,-0.4656601 0.3167896,-0.7648202 0,-0.2987998 -0.12065,-0.56797 -0.3167896,-0.76482" style="fill:#00a0df;fill-opacity:1;fill-rule:nonzero;stroke:none;stroke-width:0.35277775" id="path1344" />
   <path d="m 5.2221873,5.8378199 2.646e-4,0.00201 1.4668503,-1.5719792 H 4.7038688 Z" style="fill:#00a0df;fill-opacity:1;fill-rule:nonzero;stroke:none;stroke-width:0.35277775" id="path1348" />
</svg>