<?xml version="1.0" standalone="no"?>
<!DOCTYPE svg PUBLIC "-//W3C//DTD SVG 20010904//EN"
 "http://www.w3.org/TR/2001/REC-SVG-20010904/DTD/svg10.dtd">
<svg version="1.0" xmlns="http://www.w3.org/2000/svg"
 width="700.000000pt" height="700.000000pt" viewBox="0 0 700.000000 700.000000"
 preserveAspectRatio="xMidYMid meet">
<metadata>
Created by potrace 1.14, written by Peter Selinger 2001-2017
</metadata>
<g transform="translate(0.000000,700.000000) scale(0.100000,-0.100000)"
fill="#000000" stroke="none">
<path d="M724 6853 c-191 -38 -367 -183 -439 -361 -50 -124 -48 7 -48 -2992 1
-1548 3 -2826 6 -2840 3 -14 8 -43 13 -65 37 -199 232 -392 452 -447 73 -18
5470 -20 5566 -1 250 47 451 261 482 515 9 70 9 5607 0 5677 -13 109 -72 238
-149 327 -63 74 -190 150 -298 180 -60 17 -214 18 -2790 19 -2259 1 -2739 -1
-2795 -12z"/>
</g>
</svg>
