<?xml version="1.0" encoding="UTF-8" standalone="no"?>
<svg
   id="Layer_1"
   viewBox="0 0 268.6 276.82"
   version="1.1"
   width="268.59998"
   height="276.82001"
   xmlns="http://www.w3.org/2000/svg"
   xmlns:svg="http://www.w3.org/2000/svg">
  <defs
     id="defs4">
    <style
       id="style2">.cls-1{fill:#fff;}.cls-2{fill:#00a0df;}.cls-3{fill:#e1251b;}</style>
  </defs>
  <g
     id="g48">
    <path
       class="cls-1"
       d="M 235.04,171.21 V 48.11 c 0,-9.62 -7.8,-17.41 -17.41,-17.41 H 46.77 c -9.62,0 -17.4,7.8 -17.4,17.41 v 130.26 0 50.35 c 0,9.62 7.78,17.4 17.4,17.4 h 170.86 c 9.61,0 17.41,-7.79 17.41,-17.4 z"
       id="path6" />
    <g
       id="g46">
      <g
         id="g12">
        <path
           class="cls-3"
           d="m 35.97,183.87 v 39.06 c 0,8.99 7.28,16.28 16.28,16.28 h 159.91 c 8.99,0 16.28,-7.29 16.28,-16.28 v -39.06 z"
           id="path8" />
        <path
           class="cls-2"
           d="M 228.44,175.81 V 53.89 c 0,-8.99 -7.29,-16.28 -16.28,-16.28 H 52.25 c -8.99,0 -16.28,7.29 -16.28,16.28 v 121.92"
           id="path10" />
      </g>
      <path
         class="cls-1"
         d="m 184.69,216.56 h -6.77 c -2.34,0 -4.25,-1.91 -4.25,-4.25 v -1.56 c 0,-2.34 1.91,-4.25 4.25,-4.25 h 6.77 c 0.43,0 0.83,-0.24 1.04,-0.62 0.2,-0.38 0.19,-0.82 -0.05,-1.18 -2.3,-3.48 -6.16,-5.56 -10.32,-5.56 -3.91,0 -7.62,1.88 -9.95,5.03 H 99.02 c -2.33,-3.15 -6.04,-5.03 -9.95,-5.03 -4.16,0 -8.02,2.08 -10.32,5.56 -0.24,0.36 -0.25,0.8 -0.05,1.18 0.21,0.38 0.6,0.62 1.04,0.62 h 6.77 c 2.34,0 4.25,1.91 4.25,4.25 v 1.56 c 0,2.34 -1.91,4.25 -4.25,4.25 h -6.77 c -0.43,0 -0.83,0.24 -1.04,0.62 -0.2,0.38 -0.19,0.82 0.05,1.18 2.3,3.48 6.16,5.56 10.32,5.56 3.91,0 7.62,-1.88 9.95,-5.03 h 66.38 c 2.34,3.15 6.04,5.03 9.95,5.03 4.16,0 8.02,-2.08 10.32,-5.56 0.24,-0.36 0.25,-0.8 0.05,-1.18 -0.21,-0.38 -0.6,-0.62 -1.04,-0.62 z"
         id="path14" />
      <g
         id="g26">
        <path
           class="cls-1"
           d="m 165.2,97.26 h -13.34 c -1.24,0 -2.25,-1.01 -2.25,-2.25 0,-1.24 1.01,-2.25 2.25,-2.25 h 13.34 c 1.24,0 2.25,1.01 2.25,2.25 0,1.24 -1.01,2.25 -2.25,2.25 z"
           id="path16" />
        <path
           class="cls-1"
           d="M 112.29,95.32 H 99.6 c -1.24,0 -2.25,-1.01 -2.25,-2.25 0,-1.24 1.01,-2.25 2.25,-2.25 h 12.69 c 1.24,0 2.25,1.01 2.25,2.25 0,1.24 -1.01,2.25 -2.25,2.25 z"
           id="path18" />
        <path
           class="cls-1"
           d="M 132.16,145.51 H 85.7 c -0.8,0 -1.55,-0.43 -1.95,-1.12 -0.4,-0.69 -0.4,-1.55 0,-2.25 l 22.58,-39.11 -5.1,-8.83 c -0.62,-1.08 -0.25,-2.45 0.82,-3.07 1.08,-0.62 2.45,-0.25 3.07,0.82 l 5.1,8.83 h 45.12 c 0.21,0 0.42,0.02 0.62,0.08 0.27,0.07 0.51,0.19 0.73,0.35 0.27,0.19 0.48,0.43 0.63,0.7 0.16,0.27 0.26,0.57 0.29,0.9 0.03,0.27 0,0.54 -0.07,0.81 -0.05,0.2 -0.14,0.4 -0.24,0.57 l -23.21,40.2 c -0.4,0.7 -1.15,1.12 -1.95,1.12 z m -42.56,-4.5 h 38.67 l -19.33,-33.49 -19.33,33.49 z m 23.23,-35.74 19.33,33.49 19.33,-33.49 h -38.67 z"
           id="path20" />
        <path
           class="cls-1"
           d="m 178.72,145.51 c -0.78,0 -1.53,-0.4 -1.95,-1.12 L 148.91,96.13 c -0.62,-1.08 -0.25,-2.45 0.82,-3.07 1.08,-0.62 2.45,-0.25 3.07,0.82 l 27.86,48.26 c 0.62,1.08 0.25,2.45 -0.82,3.07 -0.35,0.21 -0.74,0.3 -1.12,0.3 z"
           id="path22" />
        <path
           class="cls-1"
           d="m 168.82,105.48 c -0.58,0 -1.15,-0.22 -1.59,-0.66 -0.88,-0.88 -0.88,-2.3 0,-3.18 0.48,-0.48 0.75,-1.13 0.75,-1.81 0,-1.42 -1.15,-2.57 -2.57,-2.57 -1.24,0 -2.25,-1.01 -2.25,-2.25 0,-1.24 1.01,-2.25 2.25,-2.25 3.9,0 7.07,3.17 7.07,7.07 0,1.89 -0.73,3.66 -2.07,5 -0.44,0.44 -1.02,0.66 -1.59,0.66 z"
           id="path24" />
      </g>
      <g
         id="g44">
        <g
           id="g32">
          <path
             class="cls-1"
             d="m 200.09,145.03 -3.87,-2.56 c 0,-1.25 -0.13,-2.48 -0.36,-3.68 l 3.28,-3.28 c 0.25,-0.25 0.31,-0.63 0.14,-0.95 l -3.27,-6.08 c -0.17,-0.31 -0.52,-0.48 -0.87,-0.41 l -4.54,0.92 c -0.87,-0.86 -1.83,-1.65 -2.87,-2.34 v -4.64 c 0,-0.35 -0.23,-0.67 -0.57,-0.77 l -6.61,-1.99 c -0.34,-0.1 -0.7,0.03 -0.9,0.33 l -2.56,3.87 c -1.25,0 -2.48,0.13 -3.68,0.36 l -3.28,-3.27 c -0.25,-0.25 -0.63,-0.31 -0.95,-0.14 l -6.08,3.27 c -0.31,0.17 -0.48,0.52 -0.41,0.87 l 0.92,4.54 c -0.86,0.87 -1.65,1.83 -2.34,2.87 h -4.64 c -0.35,0 -0.67,0.23 -0.77,0.57 l -1.99,6.61 c -0.1,0.34 0.03,0.7 0.33,0.9 l 3.87,2.56 c 0,1.25 0.12,2.48 0.36,3.68 l -3.28,3.28 c -0.25,0.25 -0.31,0.63 -0.14,0.95 l 3.27,6.08 c 0.17,0.31 0.52,0.48 0.87,0.41 l 4.54,-0.92 c 0.87,0.86 1.83,1.65 2.87,2.34 v 4.64 c 0,0.35 0.23,0.67 0.57,0.77 l 6.61,1.99 c 0.34,0.1 0.7,-0.03 0.9,-0.33 l 2.56,-3.87 c 1.25,0 2.48,-0.13 3.68,-0.36 l 3.28,3.28 c 0.25,0.25 0.63,0.31 0.95,0.14 l 6.08,-3.27 c 0.31,-0.17 0.48,-0.52 0.41,-0.87 l -0.92,-4.54 c 0.86,-0.87 1.65,-1.83 2.34,-2.87 h 4.64 c 0.35,0 0.67,-0.23 0.77,-0.57 l 1.99,-6.61 c 0.1,-0.34 -0.03,-0.7 -0.33,-0.9 v 0 z m -12.36,0.68 c -1.76,5.84 -7.94,9.16 -13.78,7.4 -5.84,-1.76 -9.16,-7.94 -7.4,-13.78 1.76,-5.84 7.94,-9.16 13.78,-7.4 5.84,1.76 9.16,7.94 7.4,13.78 z"
             id="path28" />
          <path
             class="cls-2"
             d="m 180.32,119.22 c 0.08,0 0.15,0.01 0.23,0.03 l 6.61,1.99 c 0.34,0.1 0.57,0.41 0.57,0.77 v 4.64 c 1.04,0.69 2,1.48 2.87,2.34 l 4.54,-0.92 c 0.05,-0.01 0.11,-0.02 0.16,-0.02 0.29,0 0.57,0.16 0.71,0.42 l 3.27,6.08 c 0.17,0.31 0.11,0.7 -0.14,0.95 l -3.28,3.28 c 0.24,1.2 0.36,2.44 0.36,3.68 l 3.87,2.56 v 0 c 0.29,0.19 0.43,0.56 0.33,0.9 l -1.99,6.61 c -0.1,0.34 -0.41,0.57 -0.77,0.57 h -4.64 c -0.69,1.04 -1.48,2 -2.34,2.87 l 0.92,4.54 c 0.07,0.35 -0.09,0.7 -0.41,0.87 l -6.08,3.27 c -0.12,0.06 -0.25,0.1 -0.38,0.1 -0.21,0 -0.41,-0.08 -0.57,-0.24 l -3.28,-3.28 c -1.2,0.24 -2.44,0.36 -3.68,0.36 l -2.56,3.87 c -0.15,0.23 -0.41,0.36 -0.67,0.36 -0.08,0 -0.15,-0.01 -0.23,-0.03 l -6.61,-1.99 c -0.34,-0.1 -0.57,-0.42 -0.57,-0.77 v -4.64 c -1.04,-0.69 -2,-1.48 -2.87,-2.34 l -4.54,0.92 c -0.05,0.01 -0.11,0.02 -0.16,0.02 -0.29,0 -0.56,-0.16 -0.71,-0.42 l -3.27,-6.08 c -0.17,-0.31 -0.11,-0.7 0.14,-0.95 l 3.28,-3.28 c -0.24,-1.2 -0.36,-2.43 -0.36,-3.68 l -3.87,-2.56 c -0.29,-0.2 -0.43,-0.56 -0.33,-0.9 l 1.99,-6.61 c 0.1,-0.34 0.41,-0.57 0.77,-0.57 h 4.64 c 0.69,-1.04 1.48,-2 2.34,-2.87 l -0.92,-4.54 c -0.07,-0.35 0.09,-0.7 0.41,-0.87 l 6.08,-3.27 c 0.12,-0.06 0.25,-0.1 0.38,-0.1 0.21,0 0.41,0.08 0.56,0.23 l 3.28,3.27 c 1.2,-0.24 2.44,-0.36 3.68,-0.36 l 2.56,-3.87 c 0.15,-0.23 0.41,-0.36 0.67,-0.36 m -3.18,34.36 c 4.75,0 9.15,-3.09 10.59,-7.87 1.76,-5.84 -1.56,-12.02 -7.4,-13.78 -1.06,-0.32 -2.13,-0.47 -3.18,-0.47 -4.75,0 -9.15,3.09 -10.59,7.87 -1.76,5.84 1.56,12.02 7.4,13.78 1.06,0.32 2.13,0.47 3.18,0.47 m 3.18,-38.36 v 0 c -1.61,0 -3.11,0.8 -4,2.14 l -1.45,2.19 c 0,0 -0.04,0 -0.06,0 l -1.86,-1.85 c -0.87,-0.88 -2.11,-1.41 -3.39,-1.41 -0.79,0 -1.57,0.2 -2.27,0.57 l -6.09,3.27 c -1.88,1.01 -2.86,3.09 -2.43,5.18 l 0.52,2.57 c 0,0 -0.02,0.03 -0.04,0.04 h -2.62 c -2.14,0 -3.98,1.37 -4.6,3.42 l -1.99,6.61 c -0.61,2.04 0.16,4.2 1.94,5.38 l 2.19,1.45 c 0,0 0,0.04 0,0.06 l -1.86,1.86 c -1.51,1.51 -1.84,3.79 -0.83,5.67 l 3.27,6.08 c 0.83,1.56 2.45,2.53 4.23,2.53 0.32,0 0.65,-0.03 0.96,-0.1 l 2.56,-0.52 c 0,0 0.03,0.02 0.04,0.04 V 163 c 0,2.1 1.4,3.99 3.42,4.6 l 6.61,1.99 c 0.45,0.14 0.92,0.2 1.38,0.2 1.61,0 3.11,-0.8 4,-2.14 l 1.45,-2.19 c 0,0 0.04,0 0.06,0 l 1.86,1.86 c 0.89,0.89 2.13,1.41 3.4,1.41 0.8,0 1.59,-0.2 2.28,-0.58 l 6.07,-3.26 c 1.88,-1.01 2.86,-3.09 2.43,-5.18 l -0.52,-2.57 c 0,0 0.02,-0.03 0.04,-0.04 h 2.62 c 2.14,0 3.98,-1.37 4.6,-3.42 l 1.99,-6.61 c 0.61,-2.02 -0.2,-4.23 -1.96,-5.39 l -2.18,-1.44 c 0,0 0,-0.04 0,-0.06 l 1.86,-1.86 c 1.51,-1.51 1.84,-3.79 0.83,-5.67 l -3.27,-6.08 c -0.84,-1.56 -2.46,-2.53 -4.23,-2.53 v 0 c -0.32,0 -0.64,0.03 -0.95,0.1 l -2.57,0.52 c 0,0 -0.03,-0.02 -0.04,-0.04 V 122 c 0,-2.09 -1.4,-3.99 -3.42,-4.6 l -6.61,-1.99 c -0.45,-0.14 -0.92,-0.2 -1.38,-0.2 v 0 z m -3.18,34.36 c -0.68,0 -1.37,-0.1 -2.03,-0.3 -3.73,-1.12 -5.84,-5.07 -4.72,-8.79 0.89,-2.96 3.67,-5.02 6.76,-5.02 0.68,0 1.37,0.1 2.03,0.3 1.8,0.54 3.28,1.76 4.18,3.42 0.89,1.66 1.09,3.57 0.55,5.37 -0.89,2.96 -3.67,5.02 -6.76,5.02 v 0 z"
             id="path30" />
        </g>
        <g
           id="g38">
          <path
             class="cls-1"
             d="m 109.36,148.82 -3.39,-3.17 c 0.21,-1.23 0.29,-2.47 0.25,-3.69 l 3.78,-2.68 c 0.29,-0.2 0.41,-0.57 0.3,-0.91 l -2.21,-6.54 c -0.11,-0.34 -0.43,-0.56 -0.79,-0.55 l -4.63,0.15 c -0.71,-1 -1.53,-1.93 -2.44,-2.78 l 0.77,-4.58 c 0.06,-0.35 -0.12,-0.69 -0.43,-0.85 l -6.19,-3.07 c -0.32,-0.16 -0.7,-0.09 -0.94,0.17 l -3.17,3.39 c -1.23,-0.21 -2.47,-0.29 -3.69,-0.25 l -2.69,-3.77 c -0.2,-0.29 -0.57,-0.41 -0.91,-0.29 l -6.54,2.21 c -0.34,0.11 -0.56,0.43 -0.55,0.79 l 0.15,4.63 c -1,0.71 -1.93,1.53 -2.78,2.44 l -4.58,-0.77 c -0.35,-0.06 -0.69,0.12 -0.85,0.43 l -3.07,6.19 c -0.16,0.32 -0.09,0.7 0.17,0.94 l 3.39,3.17 c -0.2,1.23 -0.29,2.47 -0.25,3.69 l -3.78,2.68 c -0.29,0.2 -0.41,0.57 -0.3,0.91 l 2.21,6.54 c 0.11,0.34 0.43,0.56 0.79,0.55 l 4.63,-0.15 c 0.71,1 1.53,1.93 2.44,2.78 L 73.29,161 c -0.06,0.35 0.12,0.7 0.44,0.85 l 6.19,3.07 c 0.32,0.16 0.7,0.09 0.94,-0.17 l 3.17,-3.39 c 1.23,0.21 2.47,0.29 3.69,0.25 l 2.68,3.78 c 0.2,0.29 0.57,0.41 0.91,0.3 l 6.54,-2.21 c 0.34,-0.11 0.56,-0.43 0.55,-0.79 l -0.15,-4.63 c 1,-0.71 1.93,-1.53 2.78,-2.44 l 4.57,0.77 c 0.35,0.06 0.7,-0.12 0.85,-0.44 l 3.07,-6.19 c 0.16,-0.32 0.09,-0.7 -0.17,-0.94 v 0 z m -12.3,-1.39 c -2.71,5.46 -9.35,7.7 -14.82,5 -5.47,-2.7 -7.7,-9.35 -5,-14.82 2.7,-5.47 9.35,-7.7 14.82,-5 5.46,2.71 7.7,9.35 5,14.82 z"
             id="path34" />
          <path
             class="cls-2"
             d="m 83.24,119.33 c 0.26,0 0.5,0.12 0.65,0.34 l 2.69,3.77 c 0.18,0 0.36,0 0.55,0 1.05,0 2.1,0.09 3.15,0.26 l 3.17,-3.39 c 0.16,-0.17 0.37,-0.25 0.59,-0.25 0.12,0 0.24,0.03 0.36,0.08 l 6.19,3.07 c 0.32,0.16 0.49,0.5 0.43,0.85 l -0.77,4.58 c 0.91,0.85 1.73,1.79 2.44,2.78 l 4.63,-0.15 c 0,0 0.02,0 0.03,0 0.34,0 0.65,0.22 0.76,0.55 l 2.21,6.54 c 0.11,0.34 0,0.71 -0.3,0.91 l -3.78,2.68 c 0.04,1.22 -0.05,2.46 -0.25,3.69 l 3.39,3.17 v 0 c 0.26,0.24 0.33,0.62 0.17,0.94 l -3.07,6.19 c -0.14,0.28 -0.42,0.45 -0.72,0.45 -0.04,0 -0.09,0 -0.13,-0.01 l -4.57,-0.77 c -0.86,0.91 -1.79,1.73 -2.78,2.44 l 0.15,4.63 c 0.01,0.35 -0.21,0.67 -0.55,0.79 l -6.54,2.21 c -0.08,0.03 -0.17,0.04 -0.26,0.04 -0.26,0 -0.5,-0.12 -0.65,-0.34 l -2.68,-3.78 c -0.18,0 -0.36,0 -0.55,0 -1.05,0 -2.1,-0.09 -3.15,-0.26 l -3.17,3.39 c -0.16,0.17 -0.37,0.25 -0.59,0.25 -0.12,0 -0.24,-0.03 -0.36,-0.08 l -6.19,-3.07 c -0.32,-0.16 -0.49,-0.51 -0.44,-0.85 l 0.77,-4.57 c -0.91,-0.85 -1.73,-1.79 -2.44,-2.78 L 67,153.78 c 0,0 -0.02,0 -0.03,0 -0.34,0 -0.65,-0.22 -0.76,-0.55 L 64,146.69 c -0.11,-0.34 0,-0.71 0.3,-0.91 l 3.78,-2.68 c -0.04,-1.22 0.05,-2.46 0.25,-3.69 l -3.39,-3.17 C 64.68,136 64.61,135.62 64.77,135.3 l 3.07,-6.19 c 0.14,-0.28 0.42,-0.45 0.72,-0.45 0.04,0 0.09,0 0.14,0.01 l 4.58,0.77 c 0.85,-0.91 1.79,-1.73 2.78,-2.44 l -0.15,-4.63 c -0.01,-0.35 0.21,-0.67 0.55,-0.79 L 83,119.37 c 0.08,-0.03 0.17,-0.04 0.26,-0.04 m 3.89,34.24 c 4.07,0 8,-2.26 9.93,-6.15 2.71,-5.46 0.46,-12.11 -5,-14.82 -1.57,-0.78 -3.24,-1.15 -4.89,-1.15 -4.07,0 -8,2.26 -9.93,6.15 -2.71,5.46 -0.46,12.11 5,14.82 1.57,0.78 3.24,1.15 4.89,1.15 m -3.89,-38.24 v 0 c -0.52,0 -1.04,0.08 -1.53,0.25 l -6.55,2.21 c -2.02,0.68 -3.33,2.57 -3.26,4.71 l 0.09,2.62 c 0,0 -0.03,0.02 -0.04,0.04 l -2.59,-0.44 c -0.26,-0.04 -0.53,-0.07 -0.8,-0.07 -1.84,0 -3.49,1.02 -4.3,2.67 l -3.07,6.19 c -0.95,1.91 -0.54,4.17 1.01,5.63 l 1.92,1.8 c 0,0 0,0.04 0,0.06 L 62,142.52 c -1.74,1.24 -2.45,3.43 -1.77,5.45 l 2.21,6.54 c 0.65,1.95 2.48,3.27 4.55,3.27 h 0.17 c 0,0 2.61,-0.09 2.61,-0.09 0.01,0.01 0.02,0.03 0.04,0.04 l -0.44,2.59 c -0.35,2.07 0.72,4.17 2.6,5.1 l 6.19,3.07 c 0.66,0.33 1.4,0.5 2.13,0.5 1.32,0 2.6,-0.55 3.5,-1.51 l 1.8,-1.92 c 0,0 0.04,0 0.06,0 l 1.52,2.14 c 0.9,1.26 2.36,2.02 3.91,2.02 0.53,0 1.05,-0.09 1.55,-0.26 l 6.53,-2.2 c 2.02,-0.68 3.33,-2.57 3.26,-4.71 l -0.09,-2.62 c 0,0 0.03,-0.02 0.04,-0.04 l 2.59,0.44 c 0.26,0.04 0.53,0.07 0.8,0.07 1.84,0 3.49,-1.02 4.3,-2.67 l 3.07,-6.19 c 0.94,-1.89 0.51,-4.21 -1.03,-5.64 l -1.91,-1.79 c 0,0 0,-0.04 0,-0.06 l 2.14,-1.52 c 1.74,-1.24 2.45,-3.43 1.77,-5.45 l -2.21,-6.54 c -0.66,-1.95 -2.49,-3.27 -4.55,-3.27 h -0.15 c 0,0 -2.63,0.09 -2.63,0.09 -0.01,-0.01 -0.03,-0.03 -0.04,-0.04 l 0.44,-2.59 c 0.35,-2.06 -0.71,-4.17 -2.6,-5.1 l -6.19,-3.07 c -0.66,-0.33 -1.4,-0.5 -2.13,-0.5 -1.32,0 -2.6,0.55 -3.5,1.51 l -1.8,1.92 c 0,0 -0.04,0 -0.06,0 l -1.52,-2.14 c -0.88,-1.25 -2.34,-2.02 -3.91,-2.02 v 0 z m 3.89,34.24 c -1.09,0 -2.13,-0.25 -3.11,-0.73 -3.49,-1.73 -4.92,-5.97 -3.19,-9.46 1.2,-2.42 3.63,-3.92 6.34,-3.92 1.09,0 2.13,0.25 3.11,0.73 3.49,1.73 4.92,5.97 3.19,9.46 -1.2,2.42 -3.63,3.92 -6.34,3.92 z"
             id="path36" />
        </g>
        <circle
           class="cls-2"
           cx="87.150002"
           cy="142.52"
           r="8.0799999"
           id="circle40" />
        <circle
           class="cls-2"
           cx="177.14999"
           cy="142.53"
           r="8.0799999"
           id="circle42" />
      </g>
    </g>
  </g>
</svg>
